<svg xmlns="http://www.w3.org/2000/svg" xmlns:xlink="http://www.w3.org/1999/xlink" width="100" zoomAndPan="magnify" viewBox="0 0 75 74.999997" height="100" preserveAspectRatio="xMidYMid meet" version="1.0"><path fill="#ffffff" d="M 8.289062 5.511719 C 7.574219 5.886719 6.636719 6.675781 6.226562 7.238281 C 5.476562 8.25 5.4375 8.886719 5.324219 17.550781 C 5.25 25.800781 5.289062 26.960938 5.886719 28.085938 C 7.3125 30.824219 7.050781 30.789062 20.625 30.75 C 31.835938 30.75 32.925781 30.789062 35.0625 31.5 L 37.3125 32.25 L 40.273438 39.488281 C 43.800781 48 45 50.550781 46.085938 51.523438 C 47.210938 52.539062 47.25 56.585938 46.125 57.300781 C 45.414062 57.75 45.375 58.085938 45.449219 63.863281 L 45.5625 69.9375 L 68.0625 69.9375 L 68.0625 63.789062 C 68.0625 57.414062 68.0625 57.375 66.449219 56.773438 C 66.414062 56.738281 66.789062 55.835938 67.273438 54.710938 C 69.300781 50.324219 69.375 49.425781 69.375 32.773438 C 69.375 17.550781 69.375 17.324219 68.550781 16.3125 C 67.835938 15.375 67.574219 15.300781 65.925781 15.449219 L 64.125 15.636719 L 64.125 13.425781 C 64.125 11.585938 63.976562 11.0625 63.1875 10.3125 C 62.25 9.335938 60.824219 9.113281 59.585938 9.75 C 58.949219 10.125 58.875 10.011719 58.875 8.476562 C 58.875 7.085938 58.6875 6.675781 57.710938 5.851562 C 56.175781 4.539062 54.601562 4.574219 53.210938 5.960938 C 52.351562 6.824219 52.125 7.386719 52.125 8.625 C 52.125 10.011719 52.050781 10.125 51.414062 9.75 C 49.351562 8.664062 47.101562 9.976562 46.6875 12.488281 C 46.539062 13.351562 46.3125 18.414062 46.164062 23.738281 L 45.9375 33.375 L 44.625 31.613281 C 43.835938 30.5625 42.636719 29.476562 41.625 28.949219 C 38.699219 27.488281 38.851562 28.011719 38.625 17.699219 C 38.363281 4.125 39.601562 5.101562 22.3125 4.949219 C 10.726562 4.875 9.449219 4.914062 8.289062 5.511719 Z M 57.1875 6.5625 L 58.125 7.460938 L 58.125 18.75 C 58.125 25.613281 58.273438 30 58.5 30 C 58.6875 30 58.875 26.210938 58.949219 20.585938 C 59.0625 11.773438 59.101562 11.136719 59.773438 10.648438 C 60.789062 9.9375 61.726562 9.976562 62.625 10.875 C 63.335938 11.585938 63.375 12.113281 63.375 21.9375 C 63.375 28.574219 63.523438 32.25 63.75 32.25 C 63.976562 32.25 64.125 29.585938 64.125 25.011719 C 64.125 19.085938 64.238281 17.625 64.726562 16.949219 C 65.4375 15.898438 66.898438 15.898438 67.914062 16.914062 C 68.664062 17.664062 68.664062 17.925781 68.550781 33.675781 C 68.398438 49.164062 68.398438 49.761719 67.574219 51.898438 C 67.125 53.136719 66.488281 54.523438 66.1875 55.011719 C 65.886719 55.460938 65.625 56.175781 65.625 56.585938 C 65.625 57.414062 65.324219 57.5625 61.726562 58.164062 C 58.835938 58.648438 52.613281 58.460938 49.613281 57.75 L 47.625 57.300781 L 47.625 55.238281 C 47.625 53.363281 47.699219 53.210938 48.375 53.4375 C 49.539062 53.8125 49.273438 53.0625 47.8125 51.976562 C 47.101562 51.414062 46.085938 50.25 45.601562 49.386719 C 44.8125 48.039062 38.625 33.335938 38.625 32.851562 C 38.625 32.738281 39.335938 32.886719 40.164062 33.1875 C 43.011719 34.199219 43.3125 33.898438 41.773438 31.460938 C 41.25 30.601562 40.914062 29.851562 40.988281 29.738281 C 41.699219 29.0625 44.851562 32.851562 45.824219 35.511719 C 46.164062 36.414062 46.5 36.75 47.136719 36.75 C 47.585938 36.75 48.9375 37.125 50.136719 37.539062 C 52.875 38.585938 55.425781 41.101562 56.625 43.988281 C 57.488281 46.050781 58.125 46.726562 58.125 45.523438 C 58.125 44.210938 55.988281 40.726562 54.113281 39 C 52.199219 37.238281 49.539062 36 47.738281 36 L 46.875 36 L 46.875 28.761719 C 46.914062 24.824219 47.0625 19.273438 47.25 16.5 C 47.550781 12 47.699219 11.363281 48.414062 10.761719 C 49.460938 9.9375 50.4375 9.9375 51.375 10.875 C 52.085938 11.585938 52.125 12.113281 52.125 21.1875 C 52.125 27.039062 52.273438 30.75 52.5 30.75 C 52.6875 30.75 52.875 26.136719 52.949219 18.898438 L 53.0625 7.050781 L 53.960938 6.335938 C 55.125 5.363281 56.101562 5.4375 57.1875 6.5625 Z M 36.261719 6.898438 L 37.3125 7.800781 L 37.425781 17.023438 L 37.539062 26.25 L 39.414062 29.289062 C 40.460938 30.9375 41.25 32.398438 41.136719 32.476562 C 41.0625 32.550781 39.261719 32.023438 37.125 31.3125 L 33.226562 30 L 8.550781 30 L 7.460938 28.914062 L 6.375 27.824219 L 6.375 8.175781 L 7.460938 7.085938 L 8.550781 6 L 35.210938 6 Z M 49.761719 58.648438 C 51.148438 58.949219 53.699219 59.289062 55.425781 59.4375 C 57.898438 59.664062 58.6875 59.886719 59.289062 60.488281 C 60.226562 61.539062 60.1875 63.300781 59.175781 64.386719 C 58.460938 65.136719 58.011719 65.25 55.351562 65.25 C 52.574219 65.25 48.414062 64.761719 46.800781 64.273438 C 46.238281 64.085938 46.125 63.601562 46.125 61.085938 C 46.125 57.710938 45.898438 57.863281 49.761719 58.648438 Z M 67.3125 61.273438 C 67.3125 64.238281 67.3125 64.273438 66.226562 64.539062 C 65.625 64.726562 63.976562 64.949219 62.585938 65.101562 L 60.039062 65.363281 L 60.636719 63.824219 C 61.164062 62.398438 61.164062 62.210938 60.523438 60.863281 L 59.8125 59.4375 L 62.625 58.835938 C 64.164062 58.5 65.851562 58.238281 66.375 58.273438 C 67.273438 58.3125 67.3125 58.386719 67.3125 61.273438 Z M 52.875 66.039062 C 56.550781 66.414062 58.238281 66.375 66.5625 65.511719 C 67.199219 65.4375 67.3125 65.699219 67.425781 67.199219 L 67.539062 69 L 46.125 69 L 46.125 65.136719 L 47.550781 65.398438 C 48.300781 65.511719 50.699219 65.8125 52.875 66.039062 Z M 52.875 66.039062 " fill-opacity="1" fill-rule="nonzero"/><path fill="#ffffff" d="M 15.375 12.75 C 15.375 12.976562 18.113281 13.125 22.875 13.125 C 27.636719 13.125 30.375 12.976562 30.375 12.75 C 30.375 12.523438 27.636719 12.375 22.875 12.375 C 18.113281 12.375 15.375 12.523438 15.375 12.75 Z M 15.375 12.75 " fill-opacity="1" fill-rule="nonzero"/><path fill="#ffffff" d="M 19.125 20.25 C 19.125 20.476562 20.925781 20.625 23.773438 20.625 C 26.511719 20.625 28.539062 20.476562 28.6875 20.25 C 28.835938 20.023438 27.1875 19.875 24.039062 19.875 C 21 19.875 19.125 20.023438 19.125 20.25 Z M 19.125 20.25 " fill-opacity="1" fill-rule="nonzero"/><path fill="#ffffff" d="M 54.601562 60.976562 C 53.773438 61.800781 53.851562 63.113281 54.789062 63.976562 C 55.5 64.613281 55.648438 64.613281 56.550781 64.085938 C 57.75 63.449219 58.050781 61.875 57.1875 60.976562 C 56.398438 60.226562 55.351562 60.1875 54.601562 60.976562 Z M 54.601562 60.976562 " fill-opacity="1" fill-rule="nonzero"/><path fill="#ffffff" d="M 23.925781 34.386719 C 23.0625 34.613281 22.648438 36.226562 23.25 36.9375 C 24.226562 38.136719 26.476562 37.238281 26.175781 35.773438 C 26.023438 34.988281 24.75 34.199219 23.925781 34.386719 Z M 23.925781 34.386719 " fill-opacity="1" fill-rule="nonzero"/><path fill="#ffffff" d="M 20.550781 38.925781 C 20.511719 39.074219 18.824219 40.085938 16.835938 41.175781 C 13.460938 42.976562 13.199219 43.050781 12.414062 42.523438 C 10.875 41.4375 8.925781 42.675781 9.5625 44.324219 C 9.675781 44.625 10.238281 45.113281 10.761719 45.414062 C 11.625 45.863281 11.699219 46.050781 11.476562 47.625 C 10.761719 52.726562 10.386719 54.113281 9.675781 54.300781 C 8.925781 54.488281 9.039062 55.351562 10.011719 56.886719 C 10.613281 57.824219 12.675781 58.875 13.875 58.875 C 15.261719 58.875 17.289062 57.675781 18.039062 56.476562 C 18.9375 55.011719 18.9375 54.523438 18.039062 54.261719 C 17.476562 54.148438 17.210938 53.289062 16.574219 50.023438 C 16.164062 47.773438 15.898438 45.824219 16.011719 45.675781 C 16.199219 45.300781 20.511719 42.898438 21.863281 42.414062 L 22.875 42 L 22.875 62.511719 L 19.6875 65.023438 C 17.925781 66.414062 16.574219 67.726562 16.726562 67.914062 C 16.988281 68.324219 32.136719 68.363281 32.398438 67.914062 C 32.511719 67.761719 31.164062 66.488281 29.4375 65.101562 L 26.25 62.585938 L 26.25 42 L 27.601562 42.5625 C 29.960938 43.539062 33.414062 45.824219 33.261719 46.273438 C 33.1875 46.5 32.773438 48.375 32.398438 50.398438 C 31.875 53.289062 31.574219 54.148438 31.050781 54.300781 C 30.1875 54.523438 30.1875 55.011719 31.125 56.550781 C 31.914062 57.824219 33.789062 58.875 35.289062 58.875 C 37.238281 58.875 39.261719 57.261719 39.898438 55.199219 C 40.125 54.523438 40.050781 54.375 39.449219 54.375 C 38.8125 54.375 38.625 53.851562 38.0625 50.324219 L 37.425781 46.273438 L 38.585938 45.074219 C 39.601562 44.0625 39.710938 43.761719 39.375 43.125 C 38.773438 42 37.949219 41.8125 36.789062 42.488281 C 35.625 43.164062 36.113281 43.3125 30.789062 40.386719 C 27.675781 38.625 27.636719 38.625 24.1875 38.625 C 22.238281 38.625 20.625 38.773438 20.550781 38.925781 Z M 22.050781 40.574219 C 22.386719 40.914062 21.523438 41.511719 18.375 43.199219 C 16.125 44.398438 13.914062 45.375 13.5 45.375 C 12.261719 45.375 12.636719 44.398438 14.175781 43.613281 C 14.925781 43.199219 16.726562 42.261719 18.113281 41.511719 C 20.886719 40.011719 21.375 39.898438 22.050781 40.574219 Z M 32.289062 42.226562 C 33.863281 43.125 35.324219 43.875 35.550781 43.875 C 35.8125 43.875 36 43.949219 36 44.023438 C 36 44.101562 36.113281 44.4375 36.226562 44.773438 C 36.601562 45.710938 34.949219 45.523438 33 44.4375 C 32.0625 43.914062 30.261719 42.9375 28.949219 42.335938 C 27 41.363281 26.664062 41.0625 27.039062 40.613281 C 27.675781 39.863281 28.875 40.238281 32.289062 42.226562 Z M 12 44.101562 C 12 44.585938 11.851562 45 11.664062 45 C 11.101562 45 10.425781 43.914062 10.648438 43.3125 C 10.949219 42.488281 12 43.085938 12 44.101562 Z M 25.5 52.574219 L 25.5 62.25 L 23.625 62.25 L 23.625 42.9375 L 25.5 42.9375 Z M 38.476562 43.3125 C 38.699219 43.914062 38.023438 45 37.460938 45 C 37.085938 45 37.011719 43.351562 37.386719 43.011719 C 37.800781 42.601562 38.25 42.710938 38.476562 43.3125 Z M 15 46.199219 C 15 46.273438 15.335938 48.074219 15.75 50.25 C 16.164062 52.425781 16.5 54.226562 16.5 54.261719 C 16.5 54.523438 11.625 54.335938 11.476562 54.074219 C 11.324219 53.8125 12.148438 48.074219 12.5625 46.6875 C 12.636719 46.351562 15 45.898438 15 46.199219 Z M 36.5625 47.0625 C 37.085938 49.351562 37.726562 54 37.574219 54.1875 C 37.238281 54.523438 32.625 54.375 32.625 54.039062 C 32.625 53.738281 33.449219 49.351562 33.9375 46.988281 C 34.199219 45.863281 36.335938 45.9375 36.5625 47.0625 Z M 36.5625 47.0625 " fill-opacity="1" fill-rule="nonzero"/></svg>