<svg xmlns="http://www.w3.org/2000/svg" xmlns:xlink="http://www.w3.org/1999/xlink" width="100" zoomAndPan="magnify" viewBox="0 0 75 74.999997" height="100" preserveAspectRatio="xMidYMid meet" version="1.0"><path fill="#ffffff" d="M 17.695312 8.453125 C 15.003906 9.773438 13.480469 12.363281 13.785156 15.105469 C 13.9375 16.273438 14.496094 17.949219 15.105469 18.710938 L 16.121094 20.132812 L 13.886719 21.453125 C 10.992188 23.179688 9.0625 25.769531 8.707031 28.308594 C 8.453125 30.085938 8.605469 30.542969 9.976562 31.914062 L 11.550781 33.488281 L 17.035156 33.335938 C 21.757812 33.183594 22.519531 33.082031 22.671875 32.269531 C 22.824219 31.507812 22.316406 31.40625 17.542969 31.40625 C 12.972656 31.40625 12.160156 31.253906 11.347656 30.390625 C 9.671875 28.5625 11.855469 24.703125 15.714844 22.773438 C 18.152344 21.503906 22.570312 21.453125 25.058594 22.621094 C 26.378906 23.28125 26.988281 23.332031 27.445312 22.875 C 28.105469 22.214844 27.140625 20.742188 26.023438 20.742188 C 25.007812 20.742188 25.160156 19.828125 26.328125 18.355469 C 27.648438 16.628906 27.699219 12.921875 26.378906 10.789062 C 25.363281 9.113281 22.570312 7.539062 20.640625 7.539062 C 20.03125 7.539062 18.660156 7.945312 17.695312 8.453125 Z M 22.773438 10.332031 C 25.667969 11.855469 26.277344 15.5625 23.992188 17.898438 C 21.046875 20.792969 16.527344 19.167969 15.816406 15.003906 C 15.5625 13.378906 15.765625 12.921875 17.339844 11.347656 C 19.269531 9.417969 20.539062 9.164062 22.773438 10.332031 Z M 22.773438 10.332031 " fill-opacity="1" fill-rule="nonzero"/><path fill="#ffffff" d="M 51.972656 8.25 C 51.160156 8.605469 49.890625 9.570312 49.179688 10.332031 C 47.453125 12.210938 47.402344 16.375 49.078125 18.660156 L 50.246094 20.234375 L 48.925781 20.84375 C 48.214844 21.148438 47.65625 21.808594 47.65625 22.367188 C 47.65625 23.433594 48.46875 23.535156 50.195312 22.519531 C 52.074219 21.453125 56.949219 21.554688 59.28125 22.722656 C 63.191406 24.753906 65.832031 29.425781 63.800781 30.746094 C 63.445312 30.949219 60.753906 31.253906 57.808594 31.40625 C 53.546875 31.609375 52.480469 31.8125 52.480469 32.421875 C 52.480469 33.03125 53.496094 33.234375 57.859375 33.335938 C 63.039062 33.488281 63.34375 33.4375 64.867188 32.117188 C 67 30.339844 67.050781 27.800781 64.96875 24.957031 C 63.445312 22.875 60.90625 20.742188 59.890625 20.742188 C 59.078125 20.742188 59.230469 19.675781 60.144531 18.660156 C 61.261719 17.441406 61.667969 13.53125 60.855469 11.601562 C 59.585938 8.503906 55.070312 6.777344 51.972656 8.25 Z M 56.796875 10.332031 C 58.621094 11.296875 59.332031 12.515625 59.332031 14.800781 C 59.332031 18.710938 54.308594 20.792969 51.363281 18.101562 C 49.027344 15.96875 49.433594 12.109375 52.125 10.433594 C 53.851562 9.367188 54.917969 9.367188 56.796875 10.332031 Z M 56.796875 10.332031 " fill-opacity="1" fill-rule="nonzero"/><path fill="#ffffff" d="M 34.148438 11.042969 C 31.710938 12.515625 30.898438 14.039062 30.898438 16.984375 C 30.898438 18.8125 31.203125 19.980469 31.914062 20.894531 C 32.472656 21.605469 32.929688 22.265625 32.929688 22.417969 C 32.929688 22.570312 31.964844 23.230469 30.746094 23.941406 C 26.023438 26.734375 24.296875 31.609375 26.988281 34.351562 C 28.359375 35.722656 28.460938 35.722656 36.382812 35.875 C 41.257812 35.976562 45.066406 35.824219 46.234375 35.46875 C 48.621094 34.757812 49.941406 32.574219 49.433594 30.035156 C 49.078125 28.003906 46.4375 24.90625 43.898438 23.535156 C 42.171875 22.621094 41.511719 21.757812 42.476562 21.757812 C 43.136719 21.757812 44.609375 18.355469 44.609375 16.882812 C 44.609375 11.804688 38.464844 8.402344 34.148438 11.042969 Z M 40.242188 12.871094 C 42.933594 14.648438 43.136719 18.253906 40.699219 20.539062 C 38.921875 22.164062 36.535156 22.164062 34.503906 20.4375 C 33.183594 19.371094 32.929688 18.761719 32.929688 16.933594 C 32.929688 15.105469 33.183594 14.496094 34.503906 13.429688 C 36.28125 11.90625 38.464844 11.703125 40.242188 12.871094 Z M 40.851562 24.550781 C 43.339844 25.261719 45.878906 27.394531 47.097656 29.730469 C 47.859375 31.253906 47.808594 31.761719 46.640625 32.929688 C 45.726562 33.84375 44.964844 33.945312 38.160156 33.945312 C 29.527344 33.945312 28.714844 33.792969 27.851562 32.117188 C 27.242188 31.050781 27.34375 30.695312 28.511719 28.917969 C 30.035156 26.632812 31.507812 25.515625 34.351562 24.5 C 36.789062 23.636719 37.804688 23.636719 40.851562 24.550781 Z M 40.851562 24.550781 " fill-opacity="1" fill-rule="nonzero"/><path fill="#ffffff" d="M 24.296875 40.597656 C 22.367188 41.207031 6.828125 49.941406 6.070312 50.90625 C 5.765625 51.261719 6.777344 53.546875 8.960938 57.402344 L 12.363281 63.34375 L 14.902344 63.851562 C 16.324219 64.15625 22.367188 65.121094 28.359375 65.984375 C 37.804688 67.40625 39.632812 67.558594 41.96875 67.050781 C 44.710938 66.492188 66.339844 55.527344 68.117188 53.800781 C 68.625 53.34375 69.132812 52.074219 69.335938 51.058594 C 69.589844 49.484375 69.386719 49.027344 68.066406 47.65625 C 67.050781 46.691406 66.035156 46.132812 65.070312 46.132812 C 64.257812 46.132812 60.042969 47.199219 55.78125 48.46875 C 51.464844 49.738281 47.859375 50.601562 47.808594 50.347656 C 46.894531 47.707031 45.574219 46.792969 38.109375 43.644531 C 30.238281 40.34375 27.34375 39.683594 24.296875 40.597656 Z M 36.992188 45.371094 C 40.75 46.945312 44.253906 48.722656 44.761719 49.28125 C 45.929688 50.652344 45.878906 52.480469 44.558594 53.800781 C 43.542969 54.816406 43.136719 54.867188 38.820312 54.5625 C 36.28125 54.359375 33.792969 54.105469 33.285156 53.953125 C 32.21875 53.597656 31.457031 55.171875 32.421875 55.78125 C 32.777344 55.984375 35.316406 56.339844 38.109375 56.542969 C 43.796875 56.949219 45.777344 56.441406 46.894531 54.308594 C 47.453125 53.140625 48.621094 52.683594 55.933594 50.5 C 61.515625 48.875 64.765625 48.164062 65.628906 48.367188 C 67.152344 48.722656 67.914062 50.804688 66.949219 51.972656 C 65.578125 53.648438 44 64.664062 41.207031 65.121094 C 39.785156 65.375 35.214844 64.917969 26.734375 63.648438 C 15.511719 61.972656 14.292969 61.667969 13.378906 60.601562 C 12.058594 59.027344 8.25 51.871094 8.554688 51.566406 C 9.417969 50.90625 23.28125 43.136719 24.550781 42.679688 C 27.089844 41.714844 29.832031 42.324219 36.992188 45.371094 Z M 36.992188 45.371094 " fill-opacity="1" fill-rule="nonzero"/></svg>