<svg xmlns="http://www.w3.org/2000/svg" xmlns:xlink="http://www.w3.org/1999/xlink" width="100" zoomAndPan="magnify" viewBox="0 0 75 74.999997" height="100" preserveAspectRatio="xMidYMid meet" version="1.0"><defs><clipPath id="b85b079bb2"><path d="M 23 1.507812 L 52 1.507812 L 52 30 L 23 30 Z M 23 1.507812 " clip-rule="nonzero"/></clipPath><clipPath id="c739e5833a"><path d="M 4.019531 25.628906 L 70.769531 25.628906 L 70.769531 73.429688 L 4.019531 73.429688 Z M 4.019531 25.628906 " clip-rule="nonzero"/></clipPath></defs><g clip-path="url(#b85b079bb2)"><path fill="#ffffff" d="M 40.988281 2.097656 C 39.378906 1.683594 37.714844 1.5625 36.046875 1.734375 C 32.332031 2.125 28.988281 3.933594 26.632812 6.839844 C 24.277344 9.742188 23.195312 13.386719 23.582031 17.105469 C 23.972656 20.820312 25.785156 24.164062 28.6875 26.519531 C 31.203125 28.558594 34.277344 29.644531 37.472656 29.644531 C 37.964844 29.644531 38.457031 29.617188 38.953125 29.566406 C 42.667969 29.179688 46.011719 27.367188 48.367188 24.464844 C 50.71875 21.5625 51.804688 17.917969 51.414062 14.199219 C 51.339844 13.476562 51.207031 12.753906 51.023438 12.054688 C 50.882812 11.53125 50.347656 11.21875 49.824219 11.359375 C 49.300781 11.496094 48.988281 12.035156 49.125 12.558594 C 49.285156 13.160156 49.398438 13.78125 49.464844 14.402344 C 50.152344 21 45.34375 26.925781 38.75 27.617188 C 35.550781 27.949219 32.417969 27.019531 29.921875 24.996094 C 27.425781 22.96875 25.867188 20.097656 25.535156 16.898438 C 25.203125 13.703125 26.132812 10.570312 28.15625 8.074219 C 30.179688 5.578125 33.054688 4.019531 36.25 3.6875 C 37.683594 3.539062 39.113281 3.640625 40.5 4 C 41.023438 4.132812 41.558594 3.816406 41.691406 3.292969 C 41.828125 2.769531 41.511719 2.234375 40.988281 2.097656 " fill-opacity="1" fill-rule="nonzero"/></g><path fill="#ffffff" d="M 32.625 10.351562 C 32.277344 9.9375 31.65625 9.882812 31.242188 10.234375 C 30.828125 10.582031 30.773438 11.199219 31.125 11.617188 L 37.207031 18.839844 C 37.390625 19.058594 37.667969 19.1875 37.957031 19.1875 C 37.964844 19.1875 37.976562 19.1875 37.984375 19.1875 C 38.285156 19.179688 38.566406 19.03125 38.746094 18.792969 L 48.320312 5.902344 C 48.640625 5.46875 48.550781 4.851562 48.117188 4.53125 C 47.679688 4.207031 47.066406 4.296875 46.742188 4.734375 L 37.90625 16.625 L 32.625 10.351562 " fill-opacity="1" fill-rule="nonzero"/><g clip-path="url(#c739e5833a)"><path fill="#ffffff" d="M 23.898438 32.632812 L 10.980469 45.550781 C 10.816406 45.714844 10.550781 45.714844 10.386719 45.550781 L 6.054688 41.214844 C 5.890625 41.054688 5.890625 40.789062 6.054688 40.625 L 18.972656 27.707031 C 19.136719 27.542969 19.402344 27.542969 19.5625 27.707031 L 23.898438 32.042969 C 24.0625 32.203125 24.0625 32.46875 23.898438 32.632812 Z M 26.511719 36.210938 C 27.136719 36.835938 27.96875 37.179688 28.851562 37.179688 C 29.738281 37.179688 30.566406 36.835938 31.195312 36.210938 C 32.273438 35.132812 34.027344 35.132812 35.105469 36.210938 L 45.261719 46.363281 C 42.8125 48.160156 39.34375 47.953125 37.128906 45.742188 L 34.828125 43.4375 C 34.457031 43.066406 33.851562 43.066406 33.476562 43.4375 C 33.273438 43.640625 33.179688 43.914062 33.199219 44.183594 L 22.3125 55.171875 L 13.1875 46.046875 L 24.769531 34.464844 Z M 43.300781 36.703125 C 44.011719 35.992188 45.054688 35.722656 46.023438 36.003906 C 47.289062 36.367188 48.664062 36.023438 49.613281 35.109375 L 50.257812 34.492188 L 61.824219 46.058594 L 54.117188 53.761719 L 51.5 51.144531 C 50.109375 49.753906 47.84375 49.753906 46.449219 51.144531 C 45.773438 51.820312 45.402344 52.714844 45.402344 53.671875 C 45.402344 53.714844 45.40625 53.757812 45.40625 53.800781 C 45.363281 53.800781 45.320312 53.796875 45.277344 53.796875 C 44.320312 53.796875 43.425781 54.167969 42.75 54.84375 C 42.019531 55.574219 41.675781 56.542969 41.710938 57.5 C 40.75 57.464844 39.78125 57.8125 39.050781 58.542969 C 38.320312 59.273438 37.976562 60.242188 38.011719 61.199219 C 37.964844 61.199219 37.921875 61.195312 37.878906 61.195312 C 36.925781 61.195312 36.027344 61.566406 35.351562 62.242188 C 34.523438 63.070312 34.1875 64.207031 34.347656 65.289062 L 32.050781 67.582031 C 31.410156 67.992188 30.542969 67.917969 29.984375 67.359375 C 29.667969 67.046875 29.496094 66.628906 29.496094 66.183594 C 29.496094 65.742188 29.667969 65.324219 29.984375 65.011719 L 29.957031 64.984375 L 34.863281 60.074219 L 33.511719 58.722656 L 28.355469 63.882812 C 27.710938 64.292969 26.847656 64.21875 26.285156 63.660156 C 25.636719 63.011719 25.636719 61.957031 26.285156 61.3125 L 26.257812 61.285156 L 31.164062 56.375 L 29.8125 55.023438 L 24.65625 60.183594 C 24.011719 60.59375 23.148438 60.519531 22.585938 59.960938 C 22.273438 59.644531 22.101562 59.230469 22.101562 58.785156 C 22.101562 58.34375 22.273438 57.925781 22.589844 57.609375 L 34.386719 45.699219 L 35.777344 47.09375 C 37.371094 48.6875 39.464844 49.484375 41.558594 49.484375 C 43.652344 49.484375 45.746094 48.6875 47.339844 47.09375 L 48.015625 46.417969 L 40.8125 39.214844 Z M 51.101562 32.042969 L 55.4375 27.707031 C 55.515625 27.625 55.625 27.585938 55.730469 27.585938 C 55.835938 27.585938 55.945312 27.625 56.027344 27.707031 L 68.945312 40.625 C 69.109375 40.789062 69.109375 41.054688 68.945312 41.214844 L 64.609375 45.550781 C 64.449219 45.714844 64.183594 45.714844 64.019531 45.550781 L 51.101562 32.632812 C 50.9375 32.46875 50.9375 32.203125 51.101562 32.042969 Z M 54.207031 58.902344 C 53.5625 59.550781 52.507812 59.550781 51.859375 58.902344 L 47.800781 54.84375 C 47.488281 54.53125 47.316406 54.113281 47.316406 53.671875 C 47.316406 53.226562 47.488281 52.808594 47.800781 52.496094 C 48.125 52.171875 48.550781 52.011719 48.976562 52.011719 C 49.398438 52.011719 49.824219 52.171875 50.148438 52.496094 L 54.207031 56.554688 C 54.519531 56.867188 54.695312 57.285156 54.695312 57.730469 C 54.695312 58.171875 54.519531 58.589844 54.207031 58.902344 Z M 50.507812 62.601562 C 50.195312 62.914062 49.777344 63.089844 49.335938 63.089844 C 48.890625 63.089844 48.476562 62.914062 48.160156 62.601562 L 44.101562 58.542969 C 43.457031 57.894531 43.457031 56.84375 44.101562 56.195312 C 44.414062 55.882812 44.832031 55.710938 45.277344 55.710938 C 45.71875 55.710938 46.136719 55.882812 46.449219 56.195312 L 50.507812 60.253906 C 50.820312 60.566406 50.996094 60.984375 50.996094 61.429688 C 50.996094 61.871094 50.820312 62.289062 50.507812 62.601562 Z M 46.808594 66.300781 C 46.164062 66.949219 45.109375 66.949219 44.460938 66.300781 L 40.402344 62.242188 C 39.757812 61.59375 39.757812 60.542969 40.402344 59.894531 C 40.726562 59.570312 41.152344 59.410156 41.578125 59.410156 C 42 59.410156 42.425781 59.570312 42.75 59.894531 L 46.808594 63.953125 C 47.457031 64.601562 47.457031 65.652344 46.808594 66.300781 Z M 43.109375 70 C 42.796875 70.3125 42.378906 70.484375 41.9375 70.484375 C 41.492188 70.484375 41.078125 70.3125 40.761719 70 L 36.703125 65.941406 C 36.390625 65.628906 36.21875 65.210938 36.21875 64.765625 C 36.21875 64.324219 36.390625 63.90625 36.703125 63.59375 C 37.019531 63.28125 37.433594 63.109375 37.878906 63.109375 C 38.320312 63.109375 38.738281 63.28125 39.050781 63.59375 L 43.109375 67.652344 C 43.757812 68.300781 43.757812 69.351562 43.109375 70 Z M 36.074219 71.011719 C 35.425781 71.660156 34.371094 71.699219 33.726562 71.097656 C 33.394531 70.789062 33.203125 70.367188 33.195312 69.914062 C 33.1875 69.460938 33.359375 69.035156 33.679688 68.710938 C 33.679688 68.710938 33.679688 68.710938 33.683594 68.710938 L 33.65625 68.683594 L 35.203125 67.132812 C 35.25 67.1875 35.300781 67.242188 35.351562 67.292969 L 37.574219 69.511719 Z M 17.621094 26.355469 L 4.703125 39.273438 C 3.792969 40.183594 3.792969 41.660156 4.703125 42.566406 L 9.039062 46.902344 C 9.492188 47.355469 10.085938 47.585938 10.683594 47.585938 C 11.054688 47.585938 11.425781 47.496094 11.761719 47.320312 L 20.980469 56.542969 C 20.46875 57.175781 20.1875 57.960938 20.1875 58.785156 C 20.1875 59.738281 20.558594 60.636719 21.234375 61.3125 C 21.964844 62.042969 22.933594 62.390625 23.890625 62.355469 C 23.855469 63.3125 24.203125 64.28125 24.933594 65.011719 C 25.660156 65.738281 26.632812 66.089844 27.585938 66.054688 C 27.585938 66.097656 27.585938 66.140625 27.585938 66.183594 C 27.585938 67.140625 27.957031 68.035156 28.632812 68.710938 C 29.359375 69.441406 30.332031 69.789062 31.285156 69.753906 C 31.285156 69.816406 31.285156 69.882812 31.285156 69.945312 C 31.300781 70.925781 31.707031 71.832031 32.421875 72.5 C 33.09375 73.121094 33.960938 73.429688 34.832031 73.429688 C 35.773438 73.429688 36.714844 73.074219 37.425781 72.363281 L 38.925781 70.863281 L 39.410156 71.351562 C 40.085938 72.027344 40.984375 72.398438 41.9375 72.398438 C 42.890625 72.398438 43.789062 72.027344 44.460938 71.351562 C 45.191406 70.621094 45.539062 69.652344 45.503906 68.695312 C 45.546875 68.695312 45.59375 68.695312 45.636719 68.695312 C 46.550781 68.695312 47.464844 68.347656 48.160156 67.652344 C 48.890625 66.921875 49.238281 65.953125 49.203125 64.996094 C 49.246094 64.996094 49.289062 65 49.335938 65 C 50.289062 65 51.1875 64.628906 51.859375 63.953125 C 52.589844 63.222656 52.9375 62.253906 52.902344 61.296875 C 52.945312 61.296875 52.988281 61.296875 53.035156 61.296875 C 53.949219 61.296875 54.863281 60.949219 55.558594 60.253906 C 56.234375 59.582031 56.605469 58.683594 56.605469 57.730469 C 56.605469 56.777344 56.234375 55.878906 55.558594 55.203125 L 55.46875 55.113281 L 63.257812 47.328125 C 63.585938 47.5 63.953125 47.585938 64.316406 47.585938 C 64.910156 47.585938 65.507812 47.355469 65.960938 46.902344 L 70.296875 42.566406 C 71.203125 41.660156 71.203125 40.183594 70.296875 39.273438 L 57.378906 26.355469 C 56.46875 25.445312 54.992188 25.445312 54.082031 26.355469 L 49.75 30.691406 C 49.148438 31.289062 48.945312 32.140625 49.140625 32.910156 L 48.289062 33.734375 C 47.828125 34.175781 47.164062 34.339844 46.554688 34.164062 C 44.914062 33.695312 43.152344 34.148438 41.945312 35.355469 L 39.460938 37.859375 L 36.457031 34.855469 C 35.574219 33.972656 34.398438 33.488281 33.148438 33.488281 C 31.898438 33.488281 30.726562 33.972656 29.84375 34.855469 C 29.578125 35.121094 29.226562 35.265625 28.851562 35.265625 C 28.476562 35.265625 28.125 35.121094 27.863281 34.855469 L 26.285156 33.28125 L 26.292969 33.269531 L 25.871094 32.859375 C 26.042969 32.105469 25.839844 31.277344 25.25 30.691406 L 20.914062 26.355469 C 20.007812 25.445312 18.53125 25.445312 17.621094 26.355469 " fill-opacity="1" fill-rule="nonzero"/></g></svg>