<svg xmlns="http://www.w3.org/2000/svg" xmlns:xlink="http://www.w3.org/1999/xlink" width="100" zoomAndPan="magnify" viewBox="0 0 75 74.999997" height="100" preserveAspectRatio="xMidYMid meet" version="1.0"><path fill="#ffffff" d="M 34.6875 2.773438 C 31.199219 3.898438 29.363281 5.511719 27.488281 9.113281 C 26.550781 10.875 26.4375 11.4375 26.4375 15.1875 C 26.4375 18.9375 26.511719 19.460938 27.449219 21.226562 C 28.949219 24.039062 30.1875 25.351562 32.4375 26.4375 C 37.539062 28.949219 43.125 26.699219 45.976562 21 C 47.4375 18.113281 47.699219 12.824219 46.539062 9.710938 C 44.550781 4.460938 39.1875 1.3125 34.6875 2.773438 Z M 39.039062 4.761719 C 41.0625 5.175781 44.0625 8.398438 44.851562 11.0625 C 46.460938 16.648438 44.136719 22.726562 39.5625 24.789062 C 35.699219 26.585938 31.648438 24.863281 29.324219 20.4375 C 28.460938 18.824219 28.351562 18.113281 28.351562 15.1875 C 28.351562 12.261719 28.460938 11.550781 29.324219 9.9375 C 31.539062 5.699219 34.875 3.898438 39.039062 4.761719 Z M 39.039062 4.761719 " fill-opacity="1" fill-rule="nonzero"/><path fill="#ffffff" d="M 24.9375 26.925781 C 23.925781 27.488281 21.710938 28.5 20.0625 29.210938 C 12.226562 32.511719 10.164062 33.710938 9.1875 35.585938 C 8.101562 37.761719 7.011719 46.425781 6.976562 53.4375 C 6.976562 61.125 7.574219 64.988281 9.449219 68.925781 C 11.363281 73.011719 13.011719 73.425781 18.5625 71.289062 C 22.5 69.789062 25.460938 67.574219 31.5 61.6875 C 34.5 58.761719 37.3125 56.175781 37.800781 55.914062 C 38.625 55.460938 38.925781 54.226562 38.25 53.8125 C 37.5 53.324219 35.324219 55.011719 29.851562 60.375 C 26.738281 63.414062 23.101562 66.601562 21.75 67.460938 C 19.386719 69 15.375 70.5 13.6875 70.5 C 11.960938 70.5 10.164062 66.601562 9.335938 61.085938 C 8.738281 56.8125 9.113281 45.5625 10.085938 40.5 C 10.800781 36.824219 10.949219 36.488281 12.1875 35.363281 C 12.9375 34.726562 15.449219 33.375 17.738281 32.4375 C 20.0625 31.460938 23.136719 30.074219 24.636719 29.324219 L 27.300781 28.011719 L 28.726562 29.25 C 32.738281 32.773438 38.023438 33.113281 42.898438 30.1875 L 45 28.949219 L 51.074219 31.988281 C 58.613281 35.738281 60.113281 37.085938 61.761719 41.4375 C 62.925781 44.476562 64.539062 50.476562 65.25 54.5625 C 65.476562 55.800781 65.773438 60.226562 65.886719 64.425781 C 66.074219 70.238281 66.226562 72.113281 66.636719 72.449219 C 67.050781 72.789062 67.273438 72.75 67.6875 72.335938 C 68.175781 71.886719 68.175781 70.574219 67.875 63.75 C 67.539062 55.5 67.085938 52.351562 65.476562 46.351562 C 63.636719 39.636719 61.914062 36.148438 59.476562 34.3125 C 57.375 32.738281 45.824219 27 44.664062 27 C 44.101562 27 43.3125 27.335938 42.976562 27.710938 C 42.601562 28.125 41.476562 28.800781 40.425781 29.25 C 36.601562 30.898438 32.324219 30.074219 29.398438 27.148438 C 27.898438 25.613281 27.375 25.574219 24.9375 26.925781 Z M 24.9375 26.925781 " fill-opacity="1" fill-rule="nonzero"/><path fill="#ffffff" d="M 39.5625 40.574219 C 37.988281 42.710938 36.5625 45.074219 36.335938 45.863281 C 35.4375 49.199219 38.289062 52.914062 41.699219 52.875 C 42.375 52.835938 44.960938 52.050781 47.4375 51.039062 L 51.9375 49.238281 L 51.9375 47.960938 C 51.9375 47.210938 52.199219 46.5 52.574219 46.199219 C 53.0625 45.863281 53.175781 45.226562 53.136719 43.425781 C 53.0625 41.398438 52.949219 41.023438 52.199219 40.648438 C 51.710938 40.425781 51.074219 39.863281 50.773438 39.414062 C 50.0625 38.398438 49.238281 38.398438 46.460938 39.5625 L 44.210938 40.460938 L 44.4375 39.375 C 44.8125 37.726562 44.363281 36.75 43.273438 36.75 C 42.5625 36.75 41.773438 37.539062 39.5625 40.574219 Z M 43.351562 39.976562 C 43.011719 40.949219 42.789062 41.773438 42.863281 41.851562 C 42.898438 41.886719 44.363281 41.363281 46.125 40.648438 C 47.886719 39.9375 49.5 39.449219 49.761719 39.5625 C 50.625 39.863281 50.289062 40.761719 49.125 41.25 C 48.523438 41.511719 48 41.851562 48 42.039062 C 48 42.488281 48.300781 42.449219 50.175781 41.738281 C 51.335938 41.289062 51.898438 41.25 52.199219 41.550781 C 52.800781 42.148438 52.050781 42.898438 50.25 43.5 C 49.425781 43.761719 48.75 44.210938 48.75 44.511719 C 48.75 45.113281 48.75 45.113281 50.289062 44.476562 C 52.988281 43.386719 53.363281 44.925781 50.738281 46.199219 L 48.9375 47.023438 L 50.175781 47.175781 C 51.414062 47.289062 51.75 48 50.925781 48.636719 C 50.664062 48.824219 48.523438 49.726562 46.199219 50.625 C 42.039062 52.238281 41.886719 52.238281 40.386719 51.710938 C 38.4375 51.039062 37.125 49.199219 37.125 47.175781 C 37.125 45.1875 37.6875 44.210938 41.886719 39.113281 C 43.574219 37.050781 44.210938 37.425781 43.351562 39.976562 Z M 43.351562 39.976562 " fill-opacity="1" fill-rule="nonzero"/><path fill="#ffffff" d="M 31.3125 48.601562 C 29.023438 50.585938 22.460938 54.898438 20.101562 55.914062 C 18.039062 56.8125 17.4375 57.375 18.601562 57.375 C 19.5 57.375 23.511719 55.273438 26.625 53.175781 C 29.960938 50.925781 33.75 47.925781 33.75 47.511719 C 33.75 46.914062 32.738281 47.363281 31.3125 48.601562 Z M 31.3125 48.601562 " fill-opacity="1" fill-rule="nonzero"/><path fill="#ffffff" d="M 56.886719 62.886719 C 56.699219 63.226562 54.375 72.113281 54.375 72.523438 C 54.375 72.636719 54.710938 72.75 55.085938 72.75 C 55.648438 72.75 55.914062 72.300781 56.289062 70.761719 C 56.550781 69.710938 56.8125 69.074219 56.851562 69.375 C 57.335938 72.335938 57.449219 72.75 57.9375 72.75 C 58.949219 72.75 58.5 63.074219 57.488281 62.738281 C 57.261719 62.664062 56.960938 62.738281 56.886719 62.886719 Z M 56.886719 62.886719 " fill-opacity="1" fill-rule="nonzero"/></svg>